<svg width="20" height="20" viewBox="0 0 20 20" fill="none" xmlns="http://www.w3.org/2000/svg">
<path d="M10.7998 18H9.2002V14.7998H10.7998V18Z" fill="#7A7B7F"/>
<path d="M7.17188 13.96L4.90918 16.2227L3.77734 15.0908L6.04004 12.8281L7.17188 13.96Z" fill="#7A7B7F"/>
<path d="M16.2227 15.0908L15.0908 16.2227L12.8281 13.96L13.96 12.8281L16.2227 15.0908Z" fill="#7A7B7F"/>
<path d="M10 6C12.2091 6 14 7.79086 14 10C14 12.2091 12.2091 14 10 14C7.79086 14 6 12.2091 6 10C6 7.79086 7.79086 6 10 6Z" fill="#7A7B7F"/>
<path d="M5.2002 10.7998H2V9.2002H5.2002V10.7998Z" fill="#7A7B7F"/>
<path d="M18 10.7998H14.7998V9.2002H18V10.7998Z" fill="#7A7B7F"/>
<path d="M7.17188 6.04004L6.04004 7.17188L3.77734 4.90918L4.90918 3.77734L7.17188 6.04004Z" fill="#7A7B7F"/>
<path d="M16.2227 4.90918L13.96 7.17188L12.8281 6.04004L15.0908 3.77734L16.2227 4.90918Z" fill="#7A7B7F"/>
<path d="M10.7998 5.2002H9.2002V2H10.7998V5.2002Z" fill="#7A7B7F"/>
</svg>
