<svg width="122" height="12" viewBox="0 0 122 12" fill="none" xmlns="http://www.w3.org/2000/svg">
<path d="M0 11.68V9.37598H1.76V11.68H0Z" fill="#E7E8ED"/>
<path d="M12.496 0.320007H14.448L18.768 11.68H16.496L15.44 8.84801H11.472L10.432 11.68H8.15997L12.496 0.320007ZM15.04 7.29601L13.472 2.83201L11.84 7.29601H15.04Z" fill="#E7E8ED"/>
<path d="M12.496 0.320007H14.448L18.768 11.68H16.496L15.44 8.84801L13.456 9.84801L11.472 8.84801L10.432 11.68H8.15997L12.496 0.320007ZM15.04 7.29601L13.472 2.83201L11.84 7.29601L13.44 8.29601L15.04 7.29601Z" fill="#AB8B80"/>
<path d="M30.16 5.15202C29.5094 5.16269 28.928 5.29069 28.416 5.53602C27.904 5.77069 27.536 6.12802 27.312 6.60802V11.68H25.168V3.29602H27.136V5.08802C27.2854 4.80002 27.4614 4.54402 27.664 4.32002C27.8667 4.08535 28.0854 3.88269 28.32 3.71202C28.5547 3.54135 28.7894 3.41335 29.024 3.32802C29.2694 3.23202 29.504 3.18402 29.728 3.18402C29.8454 3.18402 29.9307 3.18402 29.984 3.18402C30.048 3.18402 30.1067 3.18935 30.16 3.20002V5.15202Z" fill="#E7E8ED"/>
<path d="M36.56 7.328C36.56 6.74134 36.6613 6.18667 36.864 5.664C37.0667 5.14134 37.36 4.68267 37.744 4.288C38.128 3.89334 38.592 3.57867 39.136 3.344C39.68 3.10934 40.2933 2.992 40.976 2.992C41.8933 2.992 42.672 3.18934 43.312 3.584C43.9627 3.97867 44.448 4.496 44.768 5.136L42.672 5.776C42.4907 5.46667 42.2507 5.23201 41.952 5.07201C41.6533 4.90134 41.3227 4.816 40.96 4.816C40.6507 4.816 40.3627 4.88 40.096 5.00801C39.8293 5.12534 39.5947 5.29601 39.392 5.52001C39.2 5.73334 39.0453 5.99467 38.928 6.30401C38.8213 6.61334 38.768 6.95467 38.768 7.328C38.768 7.70134 38.8267 8.04267 38.944 8.35201C39.0613 8.66134 39.216 8.92801 39.408 9.15201C39.6107 9.37601 39.8453 9.55201 40.112 9.68001C40.3787 9.79734 40.6613 9.85601 40.96 9.85601C41.344 9.85601 41.696 9.76001 42.016 9.56801C42.3467 9.37601 42.576 9.14134 42.704 8.86401L44.8 9.50401C44.512 10.144 44.0373 10.6667 43.376 11.072C42.7147 11.4773 41.92 11.68 40.992 11.68C40.3093 11.68 39.696 11.5627 39.152 11.328C38.608 11.0933 38.144 10.7787 37.76 10.384C37.376 9.97867 37.0773 9.51467 36.864 8.99201C36.6613 8.45867 36.56 7.90401 36.56 7.328Z" fill="#E7E8ED"/>
<path d="M58.992 11.68H56.848V6.976C56.848 6.31467 56.7253 5.82933 56.48 5.52C56.2347 5.2 55.888 5.04 55.44 5.04C55.248 5.04 55.0453 5.08267 54.832 5.168C54.6187 5.25333 54.416 5.376 54.224 5.536C54.032 5.68533 53.856 5.86667 53.696 6.08C53.536 6.29333 53.4187 6.528 53.344 6.784V11.68H51.2V0H53.344V4.848C53.6533 4.304 54.0693 3.888 54.592 3.6C55.1253 3.30133 55.712 3.152 56.352 3.152C56.896 3.152 57.3387 3.248 57.68 3.44C58.0213 3.62133 58.288 3.86667 58.48 4.176C58.672 4.48533 58.8053 4.83733 58.88 5.232C58.9547 5.62667 58.992 6.032 58.992 6.448V11.68Z" fill="#E7E8ED"/>
<path d="M65.392 11.68V3.296H67.536V11.68H65.392ZM65.392 2.128V0H67.536V2.128H65.392Z" fill="#E7E8ED"/>
<path d="M79.584 11.104C79.296 11.232 78.944 11.36 78.528 11.488C78.112 11.616 77.6747 11.68 77.216 11.68C76.9174 11.68 76.6347 11.6427 76.368 11.568C76.112 11.4933 75.8827 11.376 75.68 11.216C75.488 11.0453 75.3334 10.832 75.216 10.576C75.0987 10.3093 75.04 9.98934 75.04 9.61601V4.80001H73.936V3.15201H75.04V0.432007H77.184V3.15201H78.944V4.80001H77.184V8.89601C77.184 9.19467 77.2587 9.40801 77.408 9.53601C77.568 9.65334 77.76 9.71201 77.984 9.71201C78.208 9.71201 78.4267 9.67467 78.64 9.60001C78.8534 9.52534 79.024 9.46134 79.152 9.40801L79.584 11.104Z" fill="#E7E8ED"/>
<path d="M90.4 11.68C89.728 11.68 89.12 11.568 88.576 11.344C88.032 11.1093 87.568 10.7947 87.184 10.4C86.8 10.0053 86.5013 9.54667 86.288 9.024C86.0853 8.50134 85.984 7.95201 85.984 7.37601C85.984 6.77867 86.0853 6.21867 86.288 5.696C86.4907 5.16267 86.784 4.69867 87.168 4.304C87.552 3.89867 88.016 3.57867 88.56 3.344C89.1147 3.10934 89.7333 2.992 90.416 2.992C91.0987 2.992 91.7067 3.10934 92.24 3.344C92.784 3.57867 93.2427 3.89334 93.616 4.288C94 4.68267 94.288 5.14134 94.48 5.664C94.6827 6.18667 94.784 6.73067 94.784 7.29601C94.784 7.43467 94.7787 7.568 94.768 7.696C94.768 7.824 94.7573 7.93067 94.736 8.01601H88.256C88.288 8.34667 88.368 8.64 88.496 8.896C88.624 9.152 88.7893 9.37067 88.992 9.552C89.1947 9.73334 89.424 9.87201 89.68 9.96801C89.936 10.064 90.2027 10.112 90.48 10.112C90.9067 10.112 91.3067 10.0107 91.68 9.80801C92.064 9.59467 92.3253 9.31734 92.464 8.976L94.304 9.48801C93.9947 10.128 93.4987 10.656 92.816 11.072C92.144 11.4773 91.3387 11.68 90.4 11.68ZM92.576 6.62401C92.5227 5.99467 92.288 5.49334 91.872 5.12001C91.4667 4.73601 90.9707 4.54401 90.384 4.54401C90.096 4.54401 89.824 4.59734 89.568 4.70401C89.3227 4.80001 89.104 4.93867 88.912 5.12001C88.72 5.30134 88.56 5.52 88.432 5.776C88.3147 6.032 88.2453 6.31467 88.224 6.62401H92.576Z" fill="#E7E8ED"/>
<path d="M101.184 7.328C101.184 6.74134 101.285 6.18667 101.488 5.664C101.691 5.14134 101.984 4.68267 102.368 4.288C102.752 3.89334 103.216 3.57867 103.76 3.344C104.304 3.10934 104.917 2.992 105.6 2.992C106.517 2.992 107.296 3.18934 107.936 3.584C108.587 3.97867 109.072 4.496 109.392 5.136L107.296 5.776C107.115 5.46667 106.875 5.23201 106.576 5.07201C106.277 4.90134 105.947 4.816 105.584 4.816C105.275 4.816 104.987 4.88 104.72 5.00801C104.453 5.12534 104.219 5.29601 104.016 5.52001C103.824 5.73334 103.669 5.99467 103.552 6.30401C103.445 6.61334 103.392 6.95467 103.392 7.328C103.392 7.70134 103.451 8.04267 103.568 8.35201C103.685 8.66134 103.84 8.92801 104.032 9.15201C104.235 9.37601 104.469 9.55201 104.736 9.68001C105.003 9.79734 105.285 9.85601 105.584 9.85601C105.968 9.85601 106.32 9.76001 106.64 9.56801C106.971 9.37601 107.2 9.14134 107.328 8.86401L109.424 9.50401C109.136 10.144 108.661 10.6667 108 11.072C107.339 11.4773 106.544 11.68 105.616 11.68C104.933 11.68 104.32 11.5627 103.776 11.328C103.232 11.0933 102.768 10.7787 102.384 10.384C102 9.97867 101.701 9.51467 101.488 8.99201C101.285 8.45867 101.184 7.90401 101.184 7.328Z" fill="#E7E8ED"/>
<path d="M121.472 11.104C121.184 11.232 120.832 11.36 120.416 11.488C120 11.616 119.563 11.68 119.104 11.68C118.805 11.68 118.523 11.6427 118.256 11.568C118 11.4933 117.771 11.376 117.568 11.216C117.376 11.0453 117.221 10.832 117.104 10.576C116.987 10.3093 116.928 9.98934 116.928 9.61601V4.80001H115.824V3.15201H116.928V0.432007H119.072V3.15201H120.832V4.80001H119.072V8.89601C119.072 9.19467 119.147 9.40801 119.296 9.53601C119.456 9.65334 119.648 9.71201 119.872 9.71201C120.096 9.71201 120.315 9.67467 120.528 9.60001C120.741 9.52534 120.912 9.46134 121.04 9.40801L121.472 11.104Z" fill="#E7E8ED"/>
</svg>
